{"title":"Laura Branigan - Discography [APE] [FLAC]","uid":9637084,"size":2349865452,"categoryP":"audio","categoryS":"flac","magnet":"?xt=urn:btih:a83fe8c28f86bd8a0a8fca480b15d91b38c3b69f&amp;dn=Laura+Branigan+-+Discography+%5BAPE%5D+%5BFLAC%5D&amp;tr=udp%3A%2F%2Ftracker.openbittorrent.com%3A80&amp;tr=udp%3A%2F%2Fopen.demonii.com%3A1337&amp;tr=udp%3A%2F%2Ftracker.coppersurfer.tk%3A6969&amp;tr=udp%3A%2F%2Fexodus.desync.com%3A6969","seeders":4,"leechers":1,"uploader":"OmegaForce0","files":66,"time":1392859691,"description":"Laura Branigan - Branigan [1982] [FLAC].flac\nFormat : FLAC\nFormat/Info : Free Lossless Audio Codec\nFile size : 197 MiB\nDuration : 33mn 59s\nOverall bit rate mode : Variable\nOverall bit rate : 809 Kbps\n\nAudio\nFormat : FLAC\nFormat/Info : Free Lossless Audio Codec\nDuration : 33mn 59s\nBit rate mode : Variable\nBit rate : 808 Kbps\nChannel(s) : 2 channels\nSampling rate : 44.1 KHz\nBit depth : 16 bits\nStream size : 197 MiB (100%)\nWriting library : libFLAC 1.1.4 (UTC 2007-02-13)\n\nLaura Branigan - Branigan 2 [1983] [FLAC].flac\nFormat : FLAC\nFormat/Info : Free Lossless Audio Codec\nFile size : 223 MiB\nDuration : 37mn 12s\nOverall bit rate mode : Variable\nOverall bit rate : 839 Kbps\n\nAudio\nFormat : FLAC\nFormat/Info : Free Lossless Audio Codec\nDuration : 37mn 12s\nBit rate mode : Variable\nBit rate : 838 Kbps\nChannel(s) : 2 channels\nSampling rate : 44.1 KHz\nBit depth : 16 bits\nStream size : 223 MiB (100%)\nWriting library : libFLAC 1.1.4 (UTC 2007-02-13)\n\nLaura Branigan - Self Control [1984] [APE].ape\nFormat : Monkey's Audio\nFile size : 228 MiB\nDuration : 40mn 5s\nOverall bit rate : 793 Kbps\n\nAudio\nFormat : Monkey's Audio\nDuration : 40mn 5s\nBit rate : 793 Kbps\nChannel(s) : 2 channels\nSampling rate : 44.1 KHz\nBit depth : 16 bits\nCompression mode : Lossless\nCompression ratio : 1.779\nStream size : 228 MiB (100%)\nEncoding settings : Normal\n\nLaura Branigan - Hold Me [1985] [FLAC].flac\nFormat : FLAC\nFormat/Info : Free Lossless Audio Codec\nFile size : 245 MiB\nDuration : 40mn 18s\nOverall bit rate mode : Variable\nOverall bit rate : 850 Kbps\nAlbum : Hold Me\nTrack name : Maybe Tonight\nTrack name/Position : 02\nPerformer : Laura Branigan\nGenre : Pop\nRecorded date : 1985\nComment : Track 2\n\nAudio\nFormat : FLAC\nFormat/Info : Free Lossless Audio Codec\nDuration : 40mn 18s\nBit rate mode : Variable\nBit rate : 849 Kbps\nChannel(s) : 2 channels\nSampling rate : 44.1 KHz\nBit depth : 16 bits\nStream size : 245 MiB (100%)\nWriting library : libFLAC 1.2.1 (UTC 2007-09-17)\n\nLaura Branigan - Touch [1987] [APE].ape\nFormat : Monkey's Audio\nFile size : 337 MiB\nDuration : 53mn 49s\nOverall bit rate : 875 Kbps\n\nAudio\nFormat : Monkey's Audio\nDuration : 53mn 49s\nBit rate : 875 Kbps\nChannel(s) : 2 channels\nSampling rate : 44.1 KHz\nBit depth : 16 bits\nCompression mode : Lossless\nCompression ratio : 1.612\nStream size : 337 MiB (100%)\nEncoding settings : High\n\nLaura Branigan - Laura Branigan [1990] [FLAC].flac\nFormat : FLAC\nFormat/Info : Free Lossless Audio Codec\nFile size : 284 MiB\nDuration : 43mn 15s\nOverall bit rate mode : Variable\nOverall bit rate : 917 Kbps\n\nAudio\nFormat : FLAC\nFormat/Info : Free Lossless Audio Codec\nDuration : 43mn 15s\nBit rate mode : Variable\nBit rate : 917 Kbps\nChannel(s) : 2 channels\nSampling rate : 44.1 KHz\nBit depth : 16 bits\nStream size : 284 MiB (100%)\nWriting library : libFLAC 1.1.4 (UTC 2007-02-13)\n\nLaura Branigan - Over My Heart [1993] [APE].ape\nFormat : Monkey's Audio\nFile size : 333 MiB\nDuration : 55mn 55s\nOverall bit rate : 833 Kbps\n\nAudio\nFormat : Monkey's Audio\nDuration : 55mn 55s\nBit rate : 833 Kbps\nChannel(s) : 2 channels\nSampling rate : 44.1 KHz\nBit depth : 16 bits\nCompression mode : Lossless\nCompression ratio : 1.695\nStream size : 333 MiB (100%)\nEncoding settings : Normal\n\nLaura Branigan - The Best Of Branigan [1995] [APE].ape\nFormat : Monkey's Audio\nFile size : 337 MiB\nDuration : 59mn 27s\nOverall bit rate : 792 Kbps\n\nAudio\nFormat : Monkey's Audio\nDuration : 59mn 27s\nBit rate : 792 Kbps\nChannel(s) : 2 channels\nSampling rate : 44.1 KHz\nBit depth : 16 bits\nCompression mode : Lossless\nCompression ratio : 1.781\nStream size : 337 MiB (100%)\nEncoding settings : Normal\n\n","torrent":{"xt":"urn:btih:a83fe8c28f86bd8a0a8fca480b15d91b38c3b69f","amp;dn":"Laura+Branigan+-+Discography+%5BAPE%5D+%5BFLAC%5D","amp;tr":["udp%3A%2F%2Ftracker.openbittorrent.com%3A80","udp%3A%2F%2Fopen.demonii.com%3A1337","udp%3A%2F%2Ftracker.coppersurfer.tk%3A6969","udp%3A%2F%2Fexodus.desync.com%3A6969"],"infoHash":"a83fe8c28f86bd8a0a8fca480b15d91b38c3b69f","infoHashBuffer":{"type":"Buffer","data":[168,63,232,194,143,134,189,138,10,143,202,72,11,21,217,27,56,195,182,159]},"announce":[],"urlList":[]}}